<?xml version="1.0" standalone="no"?>
<!DOCTYPE svg PUBLIC "-//W3C//DTD SVG 20010904//EN"
 "http://www.w3.org/TR/2001/REC-SVG-20010904/DTD/svg10.dtd">
<svg version="1.0" xmlns="http://www.w3.org/2000/svg"
 width="600.000000pt" height="600.000000pt" viewBox="0 0 600.000000 600.000000"
 preserveAspectRatio="xMidYMid meet">
<metadata>
Created by potrace 1.11, written by Peter Selinger 2001-2013
</metadata>
<g transform="translate(0.000000,600.000000) scale(0.100000,-0.100000)"
fill="#000000" stroke="none">
<path d="M3235 4550 c-179 -32 -363 -138 -475 -273 l-36 -44 -55 28 c-80 42
-171 62 -279 62 -166 1 -306 -59 -430 -183 -111 -111 -165 -230 -177 -390 l-6
-85 -51 -30 c-28 -17 -83 -62 -122 -101 -126 -125 -182 -275 -171 -462 10
-169 69 -303 187 -422 82 -82 160 -130 281 -171 88 -30 105 -33 267 -37 l173
-5 20 -39 20 -40 -305 -308 c-167 -170 -312 -323 -322 -342 -25 -47 -24 -133
2 -183 30 -58 91 -97 158 -103 102 -8 103 -7 447 335 313 312 317 315 340 300
13 -9 67 -31 119 -49 91 -31 101 -32 250 -33 149 0 159 1 242 31 48 17 120 52
161 77 94 59 220 190 272 284 l40 73 78 0 c401 1 707 292 707 673 0 171 -52
300 -170 417 -44 44 -100 89 -136 107 l-61 33 -6 117 c-7 142 -24 209 -83 329
-33 67 -65 113 -121 173 -163 176 -346 259 -588 266 -66 2 -143 0 -170 -5z
m-80 -1275 c112 -23 222 -83 294 -160 165 -176 196 -407 86 -625 -86 -168
-282 -289 -471 -290 -70 0 -193 33 -266 72 -119 64 -218 191 -262 337 -21 71
-21 211 0 282 55 188 207 333 399 380 87 22 131 23 220 4z"/>
</g>
</svg>
